<?xml version="1.0" encoding="UTF-8"?><svg id="Layer_1" xmlns="http://www.w3.org/2000/svg" width="725.73" height="252.97" viewBox="0 0 725.73 252.97"><defs><style>.cls-1{fill:#fff;}.cls-2{fill:#a4e9ff;}</style></defs><circle class="cls-2" cx="46.28" cy="40" r="40"/><path class="cls-1" d="m47.64,27.06c-.78-.78-2.05-.78-2.83,0l-12.73,12.73c-.78.78-.78,2.05,0,2.83.78.78,2.05.78,2.83,0l11.31-11.31,11.31,11.31c.78.78,2.05.78,2.83,0,.78-.78.78-2.05,0-2.83l-12.73-12.73Zm.59,26.41v-25h-4v25h4Z"/><path class="cls-2" d="m6.69,93.67c-.05-.46-.24-.81-.59-1.07-.34-.25-.81-.38-1.4-.38-.4,0-.74.06-1.02.17-.28.11-.49.26-.64.46-.14.2-.22.42-.22.67,0,.21.04.39.13.55.1.16.23.29.4.4.17.11.37.21.59.29.22.08.46.15.72.2l1.05.25c.51.11.97.27,1.4.45.42.19.79.42,1.1.7.31.28.55.6.72.98.17.38.26.8.27,1.29,0,.71-.19,1.33-.55,1.85-.36.52-.87.92-1.55,1.21-.67.28-1.48.43-2.43.43s-1.76-.14-2.45-.43c-.69-.29-1.23-.71-1.62-1.28-.39-.57-.59-1.27-.61-2.11h2.38c.03.39.14.72.34.98.2.26.47.45.8.59.34.13.72.19,1.14.19s.78-.06,1.09-.18c.31-.12.55-.29.72-.51.17-.22.26-.46.26-.74,0-.26-.08-.48-.23-.66-.15-.18-.38-.33-.67-.45-.29-.12-.65-.24-1.07-.34l-1.27-.32c-.98-.24-1.76-.61-2.32-1.12-.57-.51-.85-1.19-.85-2.05,0-.7.18-1.32.56-1.85.38-.53.91-.94,1.57-1.23.67-.3,1.42-.44,2.27-.44s1.62.15,2.26.44c.65.3,1.15.71,1.51,1.23.36.53.55,1.14.56,1.83h-2.36Zm8.07,8.46c-.89,0-1.66-.19-2.31-.57-.64-.38-1.13-.91-1.48-1.59-.34-.68-.51-1.46-.51-2.34s.17-1.68.52-2.35c.35-.68.84-1.21,1.48-1.59.64-.38,1.4-.57,2.28-.57.76,0,1.43.14,2,.41.57.28,1.02.66,1.36,1.16.33.5.52,1.09.55,1.76h-2.28c-.06-.44-.23-.79-.51-1.05-.27-.27-.63-.4-1.07-.4-.38,0-.7.1-.98.31-.28.2-.49.49-.65.88-.16.39-.23.85-.23,1.4s.08,1.03.23,1.42c.16.39.37.69.65.89s.61.31.98.31c.28,0,.52-.06.74-.17.22-.11.41-.28.55-.49.15-.22.24-.48.29-.79h2.28c-.04.67-.22,1.25-.55,1.76-.32.5-.77.9-1.34,1.18-.57.28-1.24.43-2.02.43Zm5.45-.17v-8.73h2.35v1.52h.09c.16-.54.43-.95.8-1.23.38-.28.81-.42,1.3-.42.12,0,.25,0,.39.02.14.02.26.04.37.06v2.15c-.11-.03-.27-.06-.47-.09-.2-.03-.38-.04-.55-.04-.36,0-.67.08-.95.23-.28.15-.5.36-.66.64-.16.27-.24.59-.24.94v4.94h-2.42Zm10.08.17c-.88,0-1.65-.19-2.29-.56-.64-.38-1.13-.91-1.48-1.58-.35-.68-.52-1.46-.52-2.36s.17-1.69.52-2.36c.35-.68.84-1.2,1.48-1.58.64-.38,1.41-.57,2.29-.57s1.64.19,2.28.57c.64.38,1.14.9,1.49,1.58.35.67.52,1.46.52,2.36s-.17,1.68-.52,2.36c-.35.67-.84,1.2-1.49,1.58-.64.38-1.4.56-2.28.56Zm.01-1.88c.4,0,.74-.11,1.01-.34.27-.23.47-.55.61-.94.14-.4.21-.85.21-1.36s-.07-.96-.21-1.36c-.14-.4-.34-.71-.61-.94-.27-.23-.6-.35-1.01-.35s-.75.12-1.02.35c-.27.23-.48.55-.62.94-.14.4-.2.85-.2,1.36s.07.96.2,1.36c.14.4.35.71.62.94.28.23.62.34,1.02.34Zm8.28-9.93v11.64h-2.42v-11.64h2.42Zm4.36,0v11.64h-2.42v-11.64h2.42Zm10.28,2.91v1.82h-5.26v-1.82h5.26Zm-4.06-2.09h2.42v8.14c0,.22.03.4.1.52.07.12.16.21.28.26.12.05.27.07.43.07.11,0,.23,0,.34-.03.11-.02.2-.04.26-.05l.38,1.8c-.12.04-.29.08-.51.13-.22.05-.49.09-.8.1-.58.02-1.09-.05-1.53-.23-.44-.18-.77-.45-1.02-.83s-.36-.85-.36-1.42v-8.45Zm9.49,10.99c-.88,0-1.65-.19-2.29-.56-.64-.38-1.13-.91-1.48-1.58-.35-.68-.52-1.46-.52-2.36s.17-1.69.52-2.36c.35-.68.84-1.2,1.48-1.58.64-.38,1.41-.57,2.29-.57s1.64.19,2.28.57c.64.38,1.14.9,1.49,1.58.35.67.52,1.46.52,2.36s-.17,1.68-.52,2.36c-.35.67-.84,1.2-1.49,1.58-.64.38-1.4.56-2.28.56Zm.01-1.88c.4,0,.74-.11,1.01-.34.27-.23.47-.55.61-.94.14-.4.21-.85.21-1.36s-.07-.96-.21-1.36c-.14-.4-.34-.71-.61-.94-.27-.23-.6-.35-1.01-.35s-.75.12-1.02.35c-.27.23-.48.55-.62.94-.14.4-.2.85-.2,1.36s.07.96.2,1.36c.14.4.35.71.62.94.28.23.62.34,1.02.34Zm14.2-7.02v1.82h-5.26v-1.82h5.26Zm-4.06-2.09h2.42v8.14c0,.22.03.4.1.52.07.12.16.21.28.26.12.05.27.07.43.07.11,0,.23,0,.34-.03.11-.02.2-.04.26-.05l.38,1.8c-.12.04-.29.08-.51.13-.22.05-.49.09-.8.1-.58.02-1.09-.05-1.53-.23-.44-.18-.77-.45-1.02-.83-.24-.38-.36-.85-.36-1.42v-8.45Zm9.49,10.99c-.88,0-1.65-.19-2.29-.56-.64-.38-1.13-.91-1.48-1.58-.35-.68-.52-1.46-.52-2.36s.17-1.69.52-2.36c.35-.68.84-1.2,1.48-1.58.64-.38,1.41-.57,2.29-.57s1.64.19,2.28.57c.64.38,1.14.9,1.49,1.58.35.67.52,1.46.52,2.36s-.17,1.68-.52,2.36c-.35.67-.84,1.2-1.49,1.58-.64.38-1.4.56-2.28.56Zm.01-1.88c.4,0,.74-.11,1.01-.34.27-.23.47-.55.61-.94.14-.4.21-.85.21-1.36s-.07-.96-.21-1.36c-.14-.4-.34-.71-.61-.94-.27-.23-.6-.35-1.01-.35s-.75.12-1.02.35c-.27.23-.48.55-.62.94-.14.4-.2.85-.2,1.36s.07.96.2,1.36c.14.4.35.71.62.94.28.23.62.34,1.02.34Zm5.86,4.98v-12h2.39v1.47h.11c.11-.23.26-.47.46-.72.2-.25.47-.45.8-.61.33-.17.74-.25,1.23-.25.64,0,1.22.17,1.76.5.54.33.97.83,1.29,1.49.32.66.48,1.49.48,2.49s-.16,1.8-.47,2.47c-.31.67-.73,1.17-1.27,1.52-.53.34-1.13.51-1.8.51-.47,0-.87-.08-1.2-.23-.33-.16-.59-.35-.8-.59-.21-.24-.37-.48-.48-.72h-.07v4.67h-2.42Zm2.37-7.64c0,.52.07.97.22,1.36.14.39.35.69.62.9.27.21.6.32.99.32s.73-.11,1-.32c.27-.22.48-.52.62-.91.14-.39.22-.84.22-1.35s-.07-.95-.21-1.33c-.14-.38-.35-.68-.62-.9-.27-.22-.61-.32-1.01-.32s-.73.1-1,.31c-.27.21-.48.5-.62.89-.14.38-.22.83-.22,1.35Z"/></svg>